<?xml version="1.0" standalone="no"?><!DOCTYPE svg PUBLIC "-//W3C//DTD SVG 1.1//EN" "http://www.w3.org/Graphics/SVG/1.1/DTD/svg11.dtd"><svg t="1572233302320" class="icon" viewBox="0 0 1024 1024" version="1.1" xmlns="http://www.w3.org/2000/svg" p-id="17304" width="32" height="32" xmlns:xlink="http://www.w3.org/1999/xlink"><defs><style type="text/css"></style></defs><path d="M512 1024C229.248 1024 0 794.752 0 512S229.248 0 512 0s512 229.248 512 512-229.248 512-512 512z m0-938.666667C276.352 85.333333 85.333333 276.352 85.333333 512s191.018667 426.666667 426.666667 426.666667 426.666667-191.018667 426.666667-426.666667S747.648 85.333333 512 85.333333z m182.016 497.408L722.944 810.666667 512 713.130667 301.056 810.666667l28.928-227.925334L170.709333 415.146667l228.778667-43.349334L512 170.666667l112.512 201.130666 228.778667 43.349334-159.274667 167.594666z m-125.781333-134.144L512 341.333333l-56.234667 107.264-114.389333 23.125334 79.616 89.386666L406.528 682.666667 512 630.656 617.472 682.666667l-14.464-121.557334 79.616-89.386666-114.389333-23.125334z" p-id="17305"></path></svg>