<?xml version="1.0" standalone="no"?><!DOCTYPE svg PUBLIC "-//W3C//DTD SVG 1.1//EN" "http://www.w3.org/Graphics/SVG/1.1/DTD/svg11.dtd"><svg t="1572233501775" class="icon" viewBox="0 0 1024 1024" version="1.1" xmlns="http://www.w3.org/2000/svg" p-id="7498" width="32" height="32" xmlns:xlink="http://www.w3.org/1999/xlink"><defs><style type="text/css"></style></defs><path d="M371.2 810.666667v-128H170.666667c-72.533333 0-128-55.466667-128-128v-21.333334l59.733333-384C110.933333 89.6 166.4 42.666667 230.4 42.666667H682.666667c46.933333 0 85.333333 34.133333 85.333333 81.066666V597.333333l-187.733333 358.4c-8.533333 17.066667-21.333333 25.6-38.4 25.6-93.866667 0-170.666667-76.8-170.666667-170.666666zM810.666667 512V128c0-46.933333 38.4-85.333333 85.333333-85.333333s85.333333 38.4 85.333333 85.333333v384c0 46.933333-38.4 85.333333-85.333333 85.333333s-85.333333-38.4-85.333333-85.333333z" p-id="7499"></path></svg>