<?xml version="1.0" standalone="no"?><!DOCTYPE svg PUBLIC "-//W3C//DTD SVG 1.1//EN" "http://www.w3.org/Graphics/SVG/1.1/DTD/svg11.dtd"><svg t="1572233485700" class="icon" viewBox="0 0 1024 1024" version="1.1" xmlns="http://www.w3.org/2000/svg" p-id="7040" width="32" height="32" xmlns:xlink="http://www.w3.org/1999/xlink"><defs><style type="text/css"></style></defs><path d="M682.666667 938.666667c-25.6 0-42.666667-17.066667-42.666667-42.666667s17.066667-42.666667 42.666667-42.666667h128c25.6 0 42.666667-17.066667 42.666666-42.666666v-128c0-25.6 17.066667-42.666667 42.666667-42.666667s42.666667 17.066667 42.666667 42.666667v128c0 72.533333-55.466667 128-128 128h-128zM213.333333 938.666667c-72.533333 0-128-55.466667-128-128v-128c0-25.6 17.066667-42.666667 42.666667-42.666667s42.666667 17.066667 42.666667 42.666667v128c0 25.6 17.066667 42.666667 42.666666 42.666666h128c25.6 0 42.666667 17.066667 42.666667 42.666667s-17.066667 42.666667-42.666667 42.666667H213.333333zM853.333333 341.333333V213.333333c0-25.6-17.066667-42.666667-42.666666-42.666666h-128c-25.6 0-42.666667-17.066667-42.666667-42.666667s17.066667-42.666667 42.666667-42.666667h128c72.533333 0 128 55.466667 128 128v128c0 25.6-17.066667 42.666667-42.666667 42.666667s-42.666667-17.066667-42.666667-42.666667zM85.333333 341.333333V213.333333c0-72.533333 55.466667-128 128-128h128c25.6 0 42.666667 17.066667 42.666667 42.666667s-17.066667 42.666667-42.666667 42.666667H213.333333c-25.6 0-42.666667 17.066667-42.666666 42.666666v128c0 25.6-17.066667 42.666667-42.666667 42.666667s-42.666667-17.066667-42.666667-42.666667z" p-id="7041"></path></svg>