<svg t="1579156811528" class="icon" viewBox="0 0 1024 1024" version="1.1" xmlns="http://www.w3.org/2000/svg" p-id="2172" width="32" height="32"><path d="M693.7 928H330.4C201.1 928 96 822.9 96 693.7V330.3C96 201.1 201.1 96 330.4 96H545c20 0 36.2 16.2 36.2 36.2S565 168.4 545 168.4H330.4c-89.3 0-162 72.7-162 162v363.3c0 89.3 72.7 162 162 162h363.3c89.3 0 162-72.7 162-162V462.5c0-20 16.2-36.2 36.2-36.2s36.2 16.2 36.2 36.2v231.2C928 822.9 822.9 928 693.7 928z" fill="#1296db" p-id="2173"></path><path d="M512 548.2c-5.1 0-10.3-1.1-15.3-3.4-18.1-8.5-25.9-30-17.5-48.1 5-10.7 125.2-262.8 384.6-349.3 19-6.4 39.5 3.9 45.8 22.9 6.3 19-3.9 39.4-22.9 45.8-230.3 76.8-340.9 308.9-342 311.3-6.1 13.1-19.1 20.8-32.7 20.8z" fill="#1296db" p-id="2174"></path><path d="M891.8 201.4c-2.9 0-5.9-0.3-8.8-1.1l-132.1-33c-19.4-4.8-31.2-24.5-26.3-43.9 4.9-19.4 24.6-31.2 43.9-26.3l132.1 33c19.4 4.8 31.2 24.5 26.3 43.9-4.1 16.4-18.9 27.4-35.1 27.4z" fill="#1296db" p-id="2175"></path><path d="M875.4 317c-1.7 0-3.4-0.1-5.2-0.4-19.8-2.8-33.5-21.1-30.7-40.9L856 160.1c2.8-19.8 21.1-33.5 40.9-30.7 19.8 2.8 33.5 21.1 30.7 40.9l-16.5 115.6C908.5 304 893 317 875.4 317z" fill="#1296db" p-id="2176"></path></svg>
