<?xml version="1.0" standalone="no"?><!DOCTYPE svg PUBLIC "-//W3C//DTD SVG 1.1//EN" "http://www.w3.org/Graphics/SVG/1.1/DTD/svg11.dtd"><svg t="1572241452701" class="icon" viewBox="0 0 1024 1024" version="1.1" xmlns="http://www.w3.org/2000/svg" p-id="3249" width="32" height="32" xmlns:xlink="http://www.w3.org/1999/xlink"><defs><style type="text/css"></style></defs><path d="M780.093433 65.267493 243.991502 65.267493c-98.774631 0-178.700985 79.969333-178.700985 178.615027l0 536.102954c0 98.730629 79.925331 178.744987 178.700985 178.744987l536.102954 0c98.600669 0 178.615027-80.013335 178.615027-178.744987L958.709483 243.88252C958.70846 145.236825 878.695125 65.267493 780.093433 65.267493zM869.401458 735.353974c0 73.994248-59.989279 134.069485-134.069485 134.069485L288.667004 869.423459c-73.994248 0-134.115534-60.075237-134.115534-134.069485L154.55147 288.643979c0-74.080206 60.121286-134.069485 134.115534-134.069485l446.664969 0c74.080206 0 134.069485 59.989279 134.069485 134.069485L869.401458 735.353974zM512.041444 243.88252l268.051989 312.814472-89.436962 0 0 223.288482-89.307002 0L601.349469 601.372493 422.603459 601.372493l0 178.61298-89.307002 0L333.296457 556.696991l-89.304955 0L512.041444 243.88252z" p-id="3250"></path></svg>