<?xml version="1.0" standalone="no"?><!DOCTYPE svg PUBLIC "-//W3C//DTD SVG 1.1//EN" "http://www.w3.org/Graphics/SVG/1.1/DTD/svg11.dtd"><svg t="1572233463623" class="icon" viewBox="0 0 1024 1024" version="1.1" xmlns="http://www.w3.org/2000/svg" p-id="6486" width="32" height="32" xmlns:xlink="http://www.w3.org/1999/xlink"><defs><style type="text/css"></style></defs><path d="M725.333333 938.666667H170.666667c-46.933333 0-85.333333-38.4-85.333334-85.333334V298.666667c0-25.6 17.066667-42.666667 42.666667-42.666667s42.666667 17.066667 42.666667 42.666667v512c0 21.333333 17.066667 42.666667 42.666666 42.666666h512c21.333333 0 42.666667 17.066667 42.666667 38.4v4.266667c0 21.333333-17.066667 42.666667-42.666667 42.666667z m-366.933333-170.666667C302.933333 768 256 721.066667 256 665.6V187.733333C256 132.266667 302.933333 85.333333 358.4 85.333333h477.866667C891.733333 85.333333 938.666667 132.266667 938.666667 187.733333v477.866667c0 55.466667-46.933333 102.4-102.4 102.4H358.4z m110.933333-85.333333h341.333334c21.333333-4.266667 38.4-21.333333 42.666666-42.666667v-85.333333l-119.466666-128-264.533334 256z m-128-42.666667c0 12.8 0 42.666667 4.266667 42.666667l362.666667-349.866667c12.8-12.8 34.133333-12.8 46.933333 0l93.866667 110.933333V213.333333c-4.266667-21.333333-21.333333-38.4-42.666667-42.666666H384c-21.333333 4.266667-38.4 21.333333-42.666667 42.666666v426.666667z m42.666667-320C384 260.266667 430.933333 213.333333 490.666667 213.333333S597.333333 260.266667 597.333333 320 550.4 426.666667 490.666667 426.666667 384 379.733333 384 320z m85.333333 0c0 12.8 8.533333 21.333333 21.333334 21.333333s21.333333-8.533333 21.333333-21.333333-8.533333-21.333333-21.333333-21.333333-21.333333 8.533333-21.333334 21.333333z" p-id="6487"></path></svg>