<?xml version="1.0" standalone="no"?><!DOCTYPE svg PUBLIC "-//W3C//DTD SVG 1.1//EN" "http://www.w3.org/Graphics/SVG/1.1/DTD/svg11.dtd"><svg t="1572233142341" class="icon" viewBox="0 0 1024 1024" version="1.1" xmlns="http://www.w3.org/2000/svg" p-id="10784" width="32" height="32" xmlns:xlink="http://www.w3.org/1999/xlink"><defs><style type="text/css"></style></defs><path d="M865.3 266.5l-109-108.9c-18.8-18.7-43.8-29.1-70.4-29.1-26.7 0-51.7 10.3-70.4 29.1L397.6 375.4c-18.8 18.8-29.1 43.8-29.1 70.4 0 26.7 10.3 51.7 29.1 70.4l59.9 59.9c5.7 5.7 13.2 8.5 20.6 8.5 7.5 0 14.9-2.8 20.6-8.5 11.4-11.4 11.4-29.9 0-41.3L438.9 475c-7.7-7.7-12-18.1-12-29.2 0-11.1 4.3-21.4 12-29.2l217.9-217.9c15.4-15.5 42.8-15.5 58.3 0L824 307.8c7.7 7.7 12 18.1 12 29.2 0 11.1-4.3 21.4-12 29.2L687.1 503.1c-11.4 11.4-11.4 29.9 0 41.3 11.4 11.4 29.9 11.4 41.3 0l136.9-136.9c18.8-18.8 29.1-43.8 29.1-70.4 0-26.8-10.4-51.8-29.1-70.6z m0 0" p-id="10785"></path><path d="M565.7 446.3c-11.4-11.4-29.9-11.4-41.3 0-11.4 11.4-11.4 29.9 0 41.3l59.9 59.9c7.7 7.7 12 18.1 12 29.2 0 11.1-4.3 21.4-12 29.2L366.5 823.6c-16.1 16.1-42.3 16.1-58.3 0l-109-108.9c-16.1-16.1-16.1-42.2 0-58.3l136.9-136.9c11.4-11.4 11.4-29.9 0-41.3-11.4-11.4-29.9-11.4-41.3 0L158 615.1c-38.8 38.8-38.8 102 0 140.8l108.9 108.9c19.4 19.4 44.9 29.1 70.4 29.1 25.5 0 51-9.7 70.4-29.1L625.6 647c18.8-18.7 29.1-43.8 29.1-70.4 0-26.7-10.3-51.7-29.1-70.4l-59.9-59.9z m0 0" p-id="10786"></path></svg>