<?xml version="1.0" standalone="no"?><!DOCTYPE svg PUBLIC "-//W3C//DTD SVG 1.1//EN" "http://www.w3.org/Graphics/SVG/1.1/DTD/svg11.dtd"><svg t="1572233472690" class="icon" viewBox="0 0 1024 1024" version="1.1" xmlns="http://www.w3.org/2000/svg" p-id="6811" width="32" height="32" xmlns:xlink="http://www.w3.org/1999/xlink"><defs><style type="text/css"></style></defs><path d="M128 938.666667c-8.533333 0-12.8 0-17.066667-4.266667-4.266667 0-8.533333-4.266667-8.533333-4.266667l-4.266667-4.266666c-4.266667-4.266667-4.266667-8.533333-8.533333-8.533334-4.266667-8.533333-4.266667-17.066667-4.266667-21.333333v-256c0-25.6 17.066667-42.666667 42.666667-42.666667s42.666667 17.066667 42.666667 42.666667v153.6l226.133333-226.133333c17.066667-17.066667 42.666667-17.066667 59.733333 0 17.066667 17.066667 17.066667 42.666667 0 59.733333L230.4 853.333333H384c25.6 0 42.666667 17.066667 42.666667 42.666667s-17.066667 42.666667-42.666667 42.666667H128z m768 0h-256c-25.6 0-42.666667-17.066667-42.666667-42.666667s17.066667-42.666667 42.666667-42.666667h153.6l-226.133333-226.133333c-8.533333-8.533333-12.8-17.066667-12.8-29.866667 0-12.8 4.266667-21.333333 12.8-29.866666 17.066667-17.066667 42.666667-17.066667 59.733333 0l226.133333 226.133333V640c0-25.6 17.066667-42.666667 42.666667-42.666667s42.666667 17.066667 42.666667 42.666667v260.266667c0 4.266667 0 8.533333-4.266667 12.8 0 4.266667-4.266667 8.533333-8.533333 12.8l-4.266667 4.266666c-4.266667 4.266667-8.533333 4.266667-12.8 8.533334H896z m-328.533333-482.133334c-17.066667-17.066667-17.066667-42.666667 0-59.733333L793.6 170.666667H640c-25.6 0-42.666667-17.066667-42.666667-42.666667s17.066667-42.666667 42.666667-42.666667h260.266667c4.266667 0 8.533333 0 12.8 4.266667 4.266667 0 8.533333 4.266667 12.8 8.533333l4.266666 4.266667c4.266667 4.266667 4.266667 8.533333 8.533334 12.8v264.533333c0 25.6-17.066667 42.666667-42.666667 42.666667s-42.666667-17.066667-42.666667-42.666667V230.4l-226.133333 226.133333c-8.533333 8.533333-17.066667 12.8-29.866667 12.8-12.8 0-21.333333-4.266667-29.866666-12.8z m-170.666667 0L170.666667 230.4V384c0 25.6-17.066667 42.666667-42.666667 42.666667s-42.666667-21.333333-42.666667-42.666667V128c0-4.266667 0-8.533333 4.266667-17.066667 0-4.266667 4.266667-8.533333 4.266667-8.533333l4.266666-4.266667c4.266667-4.266667 8.533333-4.266667 8.533334-4.266666 8.533333-8.533333 17.066667-8.533333 21.333333-8.533334h256c25.6 0 42.666667 17.066667 42.666667 42.666667s-21.333333 42.666667-42.666667 42.666667H230.4l226.133333 226.133333c17.066667 17.066667 17.066667 42.666667 0 59.733333-8.533333 8.533333-17.066667 12.8-29.866666 12.8-12.8 0-21.333333-4.266667-29.866667-12.8z" p-id="6812"></path></svg>