<?xml version="1.0" standalone="no"?><!DOCTYPE svg PUBLIC "-//W3C//DTD SVG 1.1//EN" "http://www.w3.org/Graphics/SVG/1.1/DTD/svg11.dtd"><svg t="1572241780673" class="icon" viewBox="0 0 1024 1024" version="1.1" xmlns="http://www.w3.org/2000/svg" p-id="7827" width="32" height="32" xmlns:xlink="http://www.w3.org/1999/xlink"><defs><style type="text/css"></style></defs><path d="M367.36 938.666667a96 96 0 0 1-57.6-19.626667L221.44 853.333333a101.12 101.12 0 0 1-20.906667-137.386666 87.893333 87.893333 0 0 0 9.813334-79.36l-2.56-6.826667a78.08 78.08 0 0 0-47.786667-52.053333h-6.826667a99.84 99.84 0 0 1-63.146666-125.44L125.013333 341.333333a93.013333 93.013333 0 0 1 47.786667-60.16 91.306667 91.306667 0 0 1 71.68-5.12 82.346667 82.346667 0 0 0 75.946667-12.373333l5.546666-4.266667a82.773333 82.773333 0 0 0 31.146667-64.426666v-10.24A98.986667 98.986667 0 0 1 454.826667 85.333333h108.8a96.426667 96.426667 0 0 1 68.266666 28.586667 101.12 101.12 0 0 1 29.013334 71.68v11.946667a75.093333 75.093333 0 0 0 29.44 61.013333l4.693333 3.413333a74.24 74.24 0 0 0 67.84 11.093334l14.506667-4.693334A96.426667 96.426667 0 0 1 900.266667 332.8l33.706666 107.52a100.693333 100.693333 0 0 1-62.293333 125.013333l-8.533333 2.986667A80.64 80.64 0 0 0 810.666667 622.933333a85.333333 85.333333 0 0 0 10.666666 70.4l11.093334 16.213334a101.546667 101.546667 0 0 1-21.333334 137.813333L725.333333 913.493333a95.573333 95.573333 0 0 1-137.386666-22.613333l-5.12-7.253333a74.666667 74.666667 0 0 0-64-33.28 76.8 76.8 0 0 0-61.013334 32.853333l-9.813333 14.08A96 96 0 0 1 384 938.666667a85.333333 85.333333 0 0 1-16.64 0zM187.733333 495.786667a163.413333 163.413333 0 0 1 101.546667 106.666666v5.12a170.666667 170.666667 0 0 1-19.626667 154.453334 16.213333 16.213333 0 0 0 0 21.76L361.386667 853.333333a10.666667 10.666667 0 0 0 15.786666-2.986666l9.813334-14.08a160.853333 160.853333 0 0 1 264.533333 0l5.12 7.68a12.8 12.8 0 0 0 7.68 5.12 10.666667 10.666667 0 0 0 8.106667-2.133334l87.893333-66.56a15.36 15.36 0 0 0 2.986667-20.906666l-11.093334-16.213334A170.666667 170.666667 0 0 1 729.6 597.333333a167.253333 167.253333 0 0 1 106.24-111.36l8.533333-2.986666a14.506667 14.506667 0 0 0 8.106667-18.773334l-33.28-106.24a14.933333 14.933333 0 0 0-8.533333-8.106666 8.96 8.96 0 0 0-8.106667 0l-14.506667 4.693333a159.573333 159.573333 0 0 1-146.346666-24.32L640 326.4a160.426667 160.426667 0 0 1-63.573333-128v-13.226667a15.786667 15.786667 0 0 0-4.266667-11.093333 13.226667 13.226667 0 0 0-8.96-3.413333h-108.373333a13.226667 13.226667 0 0 0-12.373334 14.08v10.666666a166.4 166.4 0 0 1-64.853333 131.84l-5.546667 4.266667a166.826667 166.826667 0 0 1-154.88 25.173333 9.386667 9.386667 0 0 0-5.973333 0 11.946667 11.946667 0 0 0-5.12 6.4L170.666667 474.453333a15.36 15.36 0 0 0 9.386666 19.2z" p-id="7828"></path><path d="M512 661.333333a149.333333 149.333333 0 1 1 149.333333-149.333333 149.333333 149.333333 0 0 1-149.333333 149.333333z m0-213.333333a64 64 0 1 0 64 64 64 64 0 0 0-64-64z" p-id="7829"></path></svg>