<?xml version="1.0" standalone="no"?><!DOCTYPE svg PUBLIC "-//W3C//DTD SVG 1.1//EN" "http://www.w3.org/Graphics/SVG/1.1/DTD/svg11.dtd"><svg t="1572242100790" class="icon" viewBox="0 0 1024 1024" version="1.1" xmlns="http://www.w3.org/2000/svg" p-id="29055" width="32" height="32" xmlns:xlink="http://www.w3.org/1999/xlink"><defs><style type="text/css"></style></defs><path d="M512 0C229.232 0 0 229.232 0 512s229.232 512 512 512 512-229.232 512-512S794.768 0 512 0z m308.048 790.88c-60.272-29.216-38.112-6.368-116.96-38.832-80.656-33.168-99.76-43.984-99.76-43.984l-0.704-76.064s30.208-22.752 39.632-94.672c18.848 5.408 25.248-21.952 26.272-39.424 1.104-16.88 11.136-69.536-11.92-64.832 4.72-35.152 8.432-66.928 6.736-83.76-5.76-59.056-46.896-120.704-150.72-125.216-88.272 4.512-145.568 66.208-151.36 125.264-1.664 16.832 1.728 48.576 6.448 83.776-23.056-4.752-13.136 47.984-12.128 64.864 1.12 17.472 7.36 44.944 26.256 39.504 9.392 71.92 39.6 94.88 39.6 94.88l-0.752 76.416s-19.12 11.584-99.776 44.736c-78.832 32.432-56.704 8.192-116.96 37.344C137.088 717.056 96 619.44 96 512 96 282.256 282.256 96 512 96s416 186.256 416 416c0 107.456-41.088 205.056-107.952 278.88z" fill="" p-id="29056"></path></svg>