<?xml version="1.0" standalone="no"?><!DOCTYPE svg PUBLIC "-//W3C//DTD SVG 1.1//EN" "http://www.w3.org/Graphics/SVG/1.1/DTD/svg11.dtd"><svg t="1572230315591" class="icon" viewBox="0 0 1024 1024" version="1.1" xmlns="http://www.w3.org/2000/svg" p-id="1540" xmlns:xlink="http://www.w3.org/1999/xlink" width="64" height="64"><defs><style type="text/css"></style></defs><path d="M912.381861 766.125585c-84.383017 145.862073-241.310702 236.457906-409.535821 236.457906-168.225118 0-325.152803-90.595833-409.53582-236.457906a30.971349 30.971349 0 0 1 0-31.094987 472.220348 472.220348 0 0 1 267.583803-214.51214 31.064078 31.064078 0 0 1 37.245984 16.057501 300.595181 300.595181 0 0 0 104.706033 119.867158 300.595181 300.595181 0 0 0 104.706034-119.867158 31.079533 31.079533 0 0 1 37.245984-16.057501 472.220348 472.220348 0 0 1 267.583803 214.51214c5.57917 9.612864 5.57917 21.482123 0 31.094987zM355.330307 588.163965a410.21583 410.21583 0 0 0-49.640705 23.043055c25.175812 43.613347 60.799046 95.433175 105.92696 135.50738 5.100072-4.435518 10.370147-9.164676 15.779315-14.063836 11.111976-10.030143 22.440319-20.183923 34.232305-29.364054a361.873325 361.873325 0 0 1-106.297875-115.122545z m295.031466 0a361.873325 361.873325 0 0 1-106.297874 115.122545c11.791986 9.18013 23.120329 19.333911 34.232305 29.364054 5.409168 4.899161 10.679243 9.628319 15.779315 14.063836 45.127914-40.074206 80.751148-91.894033 105.92696-135.50738a410.21583 410.21583 0 0 0-49.640706-23.043055z m84.923934 44.648816c-29.425873 50.830722-72.436484 112.217049-128.089093 157.004959a20.647566 20.647566 0 0 1-25.670365 0.200912c-10.246509-7.974659-20.307561-17.046606-30.940439-26.644015-15.655677-14.110201-31.759542-28.622225-47.73977-38.698732-15.980227 10.076507-32.084092 24.588531-47.739769 38.698732-10.632878 9.597409-20.69393 18.669356-30.94044 26.644015a20.69393 20.69393 0 0 1-25.670365-0.200912c-55.668064-44.787909-98.66322-106.174236-128.089093-157.004959a410.57129 410.57129 0 0 0-113.932528 117.76531A412.51859 412.51859 0 0 0 482.15211 939.837145v-136.821036a20.69393 20.69393 0 0 1 41.387861 0v136.821036a412.51859 412.51859 0 0 0 325.678265-189.259054 410.57129 410.57129 0 0 0-113.932529-117.76531zM502.84604 488.913463c-131.071863 0-237.725197-106.622424-237.725196-237.694287C265.120844 120.116404 371.774177 13.478524 502.84604 13.478524s237.725197 106.637879 237.725197 237.740652c0 131.071863-106.653334 237.694287-237.725197 237.694287z m0-413.353147c-96.855013 0-175.65886 78.788392-175.65886 175.65886 0 96.839558 78.803847 175.643405 175.65886 175.643405 96.855013 0 175.65886-78.803847 175.65886-175.643405 0-96.870468-78.803847-175.65886-175.65886-175.65886z" p-id="1541"></path></svg>
