<svg t="1579244880921" class="icon" viewBox="0 0 1024 1024" version="1.1" xmlns="http://www.w3.org/2000/svg" p-id="8627" width="32" height="32"><path d="M102.4 102.4h819.2a91.02222187 91.02222187 0 0 1 91.02222187 91.02222187v637.15555626a91.02222187 91.02222187 0 0 1-91.02222187 91.02222187H102.4a91.02222187 91.02222187 0 0 1-91.02222187-91.02222187V193.42222187a91.02222187 91.02222187 0 0 1 91.02222187-91.02222187z m182.0444448 364.08888853a91.02222187 91.02222187 0 1 0 0-182.04444373 91.02222187 91.02222187 0 0 0 0 182.04444373z m0 45.51111147a182.0444448 182.0444448 0 0 0-182.0444448 182.0444448 45.51111147 45.51111147 0 0 0 45.51111147 45.5111104h273.06666666a45.51111147 45.51111147 0 0 0 45.5111104-45.5111104 182.0444448 182.0444448 0 0 0-182.04444373-182.0444448z m318.57777707-136.53333333a45.51111147 45.51111147 0 0 0 0 91.02222186h273.06666666a45.51111147 45.51111147 0 0 0 0-91.02222186h-273.06666666z m0 182.0444448a45.51111147 45.51111147 0 0 0 0 91.02222186h273.06666666a45.51111147 45.51111147 0 0 0 0-91.02222186h-273.06666666z" p-id="8628" fill="#1296db"></path></svg>
