<?xml version="1.0" standalone="no"?><!DOCTYPE svg PUBLIC "-//W3C//DTD SVG 1.1//EN" "http://www.w3.org/Graphics/SVG/1.1/DTD/svg11.dtd"><svg t="1572233090039" class="icon" viewBox="0 0 1024 1024" version="1.1" xmlns="http://www.w3.org/2000/svg" p-id="7617" width="32" height="32" xmlns:xlink="http://www.w3.org/1999/xlink"><defs><style type="text/css"></style></defs><path d="M512 51.2C258.048 51.2 51.2 258.048 51.2 512s206.848 460.8 460.8 460.8 460.8-206.848 460.8-460.8S765.952 51.2 512 51.2z m143.36 492.544c-4.096 5.12-8.192 10.24-13.312 13.312L445.44 688.128c-9.216 6.144-18.432 8.192-28.672 8.192-16.384 0-32.768-8.192-43.008-22.528-4.096-5.12-6.144-11.264-7.168-18.432-9.216-45.056-13.312-92.16-13.312-140.288 0-49.152 5.12-98.304 14.336-146.432 3.072-13.312 10.24-24.576 21.504-32.768s24.576-10.24 37.888-8.192c7.168 1.024 13.312 4.096 19.456 8.192l196.608 136.192c23.552 16.384 28.672 49.152 12.288 71.68z" p-id="7618"></path></svg>