<?xml version="1.0" standalone="no"?><!DOCTYPE svg PUBLIC "-//W3C//DTD SVG 1.1//EN" "http://www.w3.org/Graphics/SVG/1.1/DTD/svg11.dtd"><svg t="1572233529501" class="icon" viewBox="0 0 1024 1024" version="1.1" xmlns="http://www.w3.org/2000/svg" p-id="8416" width="32" height="32" xmlns:xlink="http://www.w3.org/1999/xlink"><defs><style type="text/css"></style></defs><path d="M832 1024H192c-106.048 0-192-86.016-192-192V192a192 192 0 0 1 192-192h640c105.984 0 192 85.952 192 192v640c0 105.984-86.016 192-192 192z m64-832a64 64 0 0 0-64-64H192C156.672 128 128 156.672 128 192v640a64 64 0 0 0 64 64h640c35.392 0 64-28.608 64-64V192z m-128 640h-64V192h128v64h-64v64h64v64h-64v64h64v64h-64v64h64v64h-64v64h64v64h-64v64z m-384-128h256v128H384v-128z m0-320h256v256H384V384z m0-192h256v128H384V192z m-128 576H192v-64h64v-64H192v-64h64v-64H192v-64h64v-64H192v-64h64v-64H192V192h128v640h-64v-64z" p-id="8417"></path></svg>